# xmcd
#
# Track frame offsets:
#	150
#	20234
#	37686
#	52095
#	72835
#	91698
#	112740
#	134599
#	147398
#	175741
#	191178
#	215649
#	231961
#	250168
#	272052
#
# Disc length: 3878 seconds
#
# Revision: 0
# Processed by: cddbd v1.5.2PL0 Copyright (c) Steve Scherf et al.
# Submitted via: EasyCDDAExtractor 16.0.6.1
#
DISCID=dc0f240f
DTITLE=Steve and Heather - Made in Nashville
DYEAR=1900
DGENRE=Country
TTITLE0=A heart on two feet
TTITLE1=I say so long
TTITLE2=Just watching you
TTITLE3=Baskstreet
TTITLE4=Roco and roll keep cool
TTITLE5=The rose
TTITLE6=Bonnie and Clyde
TTITLE7=Right now
TTITLE8=My heart will always be for you
TTITLE9=Let's give it a try
TTITLE10=Jumping the hight wave
TTITLE11=Sittin' here lovin' you
TTITLE12=When the groove goes on
TTITLE13=Bonus 1
TTITLE14=Bouns 2
EXTD=
EXTT0=
EXTT1=
EXTT2=
EXTT3=
EXTT4=
EXTT5=
EXTT6=
EXTT7=
EXTT8=
EXTT9=
EXTT10=
EXTT11=
EXTT12=
EXTT13=
EXTT14=
PLAYORDER=
